<svg xmlns="http://www.w3.org/2000/svg" viewBox="0 0 276.16 107.58"><title>logo</title><g data-name="Верхняя фрональная часть"><path d="M25.1 58.11a25.87 25.87 0 0 0-3.22-.11 126 126 0 0 0-.8-15c-.26-2.6-.6-5.19-1-7.78C19.8 33 20 30.42 18.06 29a1.93 1.93 0 0 0-2.36.3c-3.63 3.94-5 9.42-6.31 14.48a124.32 124.32 0 0 0-3.14 15.7c-1 .21-2.07.45-3.07.76a1.92 1.92 0 0 0-1.1.39 1.12 1.12 0 0 0-.5.61 1.49 1.49 0 0 0-.1.28 5.82 5.82 0 0 0 .65 3.84c.52 1.11 1.2 2.56 2.37 3.09.55.25 1.46.11 1.57-.64a7.73 7.73 0 0 0-.68-3.38 13.28 13.28 0 0 1-.55-1.68 86.86 86.86 0 0 0 8.95-.05 83.25 83.25 0 0 0 9.67-.62 30.9 30.9 0 0 1-.28 4.92c-.14 1.17 1.67 1.58 2.18.59A15.13 15.13 0 0 0 27 60a1.9 1.9 0 0 0-1.9-1.89zm-11.32.46c-1.44.12-2.9.26-4.36.45a87.17 87.17 0 0 0 3.43-12.21c.9-3.67 1.74-8.07 3.57-11.65.48 3.26.48 6.77.68 9.86.28 4.4.27 8.8.39 13.2-1.24.12-2.49.25-3.7.35zM45.73 58.1c-.19-1.36-.38-2.72-.61-4.08-.52-3.06-.92-6.1-1.69-9.11a63.07 63.07 0 0 0-5.5-14.56 1.75 1.75 0 0 0-2.74-.35c-1.55 1.87-2.16 4-2.87 6.32-.91 2.9-1.72 5.82-2.41 8.79-1.32 5.68-2.54 11.89-1.74 17.76.16 1.17 2.06 1.1 2.28 0 .66-3.22 1.09-6.46 1.6-9.7a23.42 23.42 0 0 0 4.31 0c1.45-.07 3.34 0 4.71-.64.23.81.44 1.61.64 2.43.62 2.62 1.7 5.27 2.14 7.9.23 1.39 2.35.8 2.11-.58s-.04-2.8-.23-4.18zm-9-8.65c-1.35.24-2.76.38-4.12.66.19-1 .39-2 .62-3.05.6-2.63 1.31-5.24 2-7.84.37-1.34.69-2.76 1.17-4.11 1.54 3.78 2.29 8.07 3.18 11.92.16.68.33 1.36.52 2a13.31 13.31 0 0 0-3.41.41zM53.25 30.23c-.08-.51-.17-1-.3-1.52-.42-1.67-1.95-.91-2.41.06v-.06c-1.82 5.24-1.24 11.65-1.1 17.12 0 1.88.16 3.75.31 5.62a2.18 2.18 0 0 0 .36 3.93c.25 2.46.21 5.58 1.1 7.88A1.92 1.92 0 0 0 54 64.39c1.56-1.09.79-3.37.66-5s-.24-3.47-.32-5.2c6.37-2.65 12.79-7.59 12.53-14.87s-7.45-11.86-13.62-9.09zm.82 19.52v-.77c-.22-3.49-.27-7-.39-10.48-.05-1.59 0-3.21-.08-4.81a10.19 10.19 0 0 1 5.65 1.05c2.29 1.3 2.59 4.07 2.68 6.43.07 3.83-4.01 6.76-7.86 8.57zM83.9 30.12c0 .22 0 .44-.07.65-2 5.31-3.54 10.82-5.54 16.14-1 2.65-2.08 5.27-3.33 7.81a20.71 20.71 0 0 1-1.23 2.13c0-.51-.08-1-.11-1.52-.2-3.17-.31-6.35-.47-9.53-.28-5.65.27-11.74-.82-17.29-.35-1-2-1.48-2.44 0-1.61 5.36-1.28 11.73-1.34 17.29 0 2.83.07 5.65.21 8.47s0 6.25 1.09 9a2.16 2.16 0 0 0 3 1.11 1.85 1.85 0 0 0 .52-.26c4.33-3.09 6.36-9.66 8-14.49.49-1.41 1-2.87 1.51-4.36q0 .89-.09 1.78c-.16 2.82-.35 5.64-.46 8.46-.1 2.54-.62 5.42.32 7.84.47 1.19 2.29 1.79 3 .39 1.11-2.22 1-4.73 1.06-7.17.11-2.82.14-5.64.16-8.46 0-6 .23-12-.27-18a1.35 1.35 0 0 0-2.7.01zM141.73 31.23c-1.13 0-1.55.76-1.49-.7a10.07 10.07 0 0 0-.28-2.16 11 11 0 0 0-2.13-4.32 24.31 24.31 0 0 0-7.43-6c-2.26-1.32-5.61-2.47-8.07-.91-2.83 1.8-5.18 4.59-7.55 6.94-5.35 5.3-10.57 11-14.2 17.66a36.25 36.25 0 0 0-3.34 9.85c-.65 3-1.49 6.4-.84 9.48.59 2.82 2.08 5.27 5 6 3.17.75 7.66-.37 10.78-1.13 7.09-1.74 12.65-6.37 17.81-11.28a105.75 105.75 0 0 0 13.1-15.17 5.45 5.45 0 0 0 2.77-4.49c.19-2.48-2.03-3.72-4.13-3.77zm-18.68-11a16.67 16.67 0 0 1 4.83 10.93c0 .61-1.37-.75-1.66-.95l-2.6-1.78c-1.78-1.22-3.57-2.42-5.41-3.55a30.39 30.39 0 0 1 4.84-4.69zm-11.38 11.42l.28-.3a19.74 19.74 0 0 1 4.65 4.47c.52.76 2.16 4 2.25 5.53-2-.9-3.92-2.87-5.56-4.06a17 17 0 0 0-4.29-2.55c.89-1.06 1.79-2.09 2.67-3.09zm29.17 7.12a.67.67 0 0 0-.1.21c-2.91 3.13-5.89 6.19-9 9.17-4.14 4-8.35 8.69-13.21 11.85a29.17 29.17 0 0 1-8 3.45c-2.74.78-8.14 2.26-10.18-.51-1.78-2.42-1-6-.47-8.72a56.16 56.16 0 0 1 2-8.05 35.24 35.24 0 0 1 5.9-10c1.65 1.39 3.61 2.53 5.28 3.89s3.84 3.49 6.1 4a1.23 1.23 0 0 0 1.19-.31c1.81-1.9 0-5.93-.94-7.92a13.6 13.6 0 0 0-5.92-6.25c1.24-1.31 2.5-2.59 3.78-3.86 2.7 2.39 5.52 4.61 8.33 6.86 1.45 1.16 3.44 2.42 4.52.14 1.19-2.53-.48-6.13-1.4-8.45a15.89 15.89 0 0 0-2.72-4.91c2.46.36 5.18 3 6.76 4.24 2.44 2 4.36 4.57 4.34 7.81a2.43 2.43 0 0 0 2.25 2.65c.87.1 3.62-.55 3.81.92.13 1.24-1.62 2.82-2.32 3.79zM138 14.62a1.37 1.37 0 0 0 2-.82v-.23a1.15 1.15 0 0 0 .28-.83 1.64 1.64 0 0 0-2.81-1.09 1.83 1.83 0 0 0-.45 1.73 2 2 0 0 0 .98 1.24zm.87-1.43s.03-.02.05.01zM150.92 16a1.56 1.56 0 0 0 .44.92 1.64 1.64 0 0 0 1.52.4 2.61 2.61 0 0 0 1.92-1.75 1.77 1.77 0 0 0-1.71-2.4 1.71 1.71 0 0 0-1.31.48 2.92 2.92 0 0 0-.7 1.09 1.52 1.52 0 0 0-.16 1.26zM149.63 3.78H149.93l.38-.17.22-.1a1.58 1.58 0 0 0 .75-1.68 2.16 2.16 0 0 0-.55-1.29 1.52 1.52 0 0 0-1.85-.24 2.1 2.1 0 0 0-.76 3 1.45 1.45 0 0 0 .79.61 1.4 1.4 0 0 0 .72-.13zM184 30.33c-2.71-3.66-5.48-7.59-9-10.52a1.6 1.6 0 0 0-.59-.57c-1.38-2.11-4.72-3.19-7.05-3.12-3.94.11-6.9 3.89-9.27 6.57a49.12 49.12 0 0 0-7.8 11.39c-1.42 3-3.38 7.52.07 9.7 1.34 2.89 4.57 5.35 6.7 7.43 3.24 3.17 6.36 6.63 10 9.41a46.51 46.51 0 0 0 10.55 5.63c2.65 1.11 6.68 2.34 9.76 1.48a1.08 1.08 0 0 0 1.06.11c3.79-1.54 4.5-5.83 5.2-9.45.95-4.87-.54-10-2.2-14.55A53 53 0 0 0 184 30.33zm5 14.83c-2.64 1.28-5.22 2.72-7.79 4.15a17.69 17.69 0 0 1 2.16-3.46 22.11 22.11 0 0 1 4-4.11q.92 1.67 1.63 3.42zm-6.59-11.58a19.78 19.78 0 0 0-4.35 2.9c-1.64 1.39-3.36 3.61-5.41 4.6.28-1.58 2.55-5.3 3-6a25.27 25.27 0 0 1 4.46-5q1.18 1.74 2.33 3.5zm-32 7c.05-2.56 2.35-6.14 3.21-7.63a53.14 53.14 0 0 1 5-7.11 52.06 52.06 0 0 1 5.25-5.68c1.6-1.45 3.83-2.32 5.91-1.34a11.31 11.31 0 0 1 2.46 1.44 29.31 29.31 0 0 1-5.93 5.21 7.48 7.48 0 0 0-3.52 5.72c-.2 2.41-.83 3.86-3.34 4.33a15.47 15.47 0 0 0-3.59 1.15 15.66 15.66 0 0 0-5.42 3.91zm36.87 24.75c-6.83 1.23-14.76-4.1-19.6-8.4-2.89-2.56-5.66-5.27-8.5-7.89-2.44-2.25-5.13-4.28-7.44-6.67a23.63 23.63 0 0 1 6.86-3.72c2.57-.8 5-.71 6.35-3.35a7.89 7.89 0 0 0 .58-3.18c.16-2.77 1.26-3.82 3.42-5.25a21.68 21.68 0 0 0 5.55-5.19c1.47 2.26 3 4.5 4.51 6.74a21.57 21.57 0 0 0-5.79 6.19c-1.32 2-3.25 5.39-2.64 7.9s3.86-.15 4.75-.84c2.75-2.16 5.15-4.74 8.34-6.24q1.36 2.12 2.63 4.31l-.15.09c-3.53 2.69-8.49 7.34-7.79 12.21a1.33 1.33 0 0 0 1.95.79c3.17-1.87 6.44-3.55 9.63-5.38a47.22 47.22 0 0 1 1.52 5.11c.85 3.68-.46 10.94-4.15 12.77zM217.8 59.84c-1.67.07-3.33.21-5 .27a28.71 28.71 0 0 1-4.89 0c-.27-2 0-4.3-.17-6.22-.12-1.74-.2-3.48-.27-5.23a39.74 39.74 0 0 0 9.15.32 1.91 1.91 0 0 0 0-3.81 42.83 42.83 0 0 0-9.27 0c-.08-3.76 0-7.59-.34-11.34a20.86 20.86 0 0 0 9.77-.88 1.26 1.26 0 0 0 0-2.42 19.6 19.6 0 0 0-11.84 0 1 1 0 0 0-.46.28 1.46 1.46 0 0 0-.49 1.45c-1.47 7.61-1.07 16.05-.48 23.71.19 2.51-.19 6.91 2.79 7.73 1.67.46 3.8.21 5.52.21a46.77 46.77 0 0 0 6.5-.44c2.07-.26 1.55-3.72-.52-3.63zM244 56.9c-1 .08-1.94.18-2.9.29 0-4.4-1.33-9-2.37-13.17-.66-2.59-1.41-5.16-2.32-7.67-.76-2.1-1.47-4.42-3.18-5.94a1.35 1.35 0 0 0-1.9 0c-1.37 1.61-1.79 3.69-2.31 5.7-.71 2.75-1.39 5.51-2.08 8.26a119.88 119.88 0 0 0-2.84 14.11 23.73 23.73 0 0 0-2.44.34 1.41 1.41 0 0 0-.35.12 1.05 1.05 0 0 0-1.05 1.11 18.2 18.2 0 0 0 1.18 5.07 8.8 8.8 0 0 0 2.18 4c1.81 1.65 4.51-1 2.69-2.69a11.62 11.62 0 0 1-2.53-4.43 35.21 35.21 0 0 0 8.75.24 95.53 95.53 0 0 0 9.61-1 14.56 14.56 0 0 1-2.66 6.47c-1.08 1.68 1.31 3.39 2.7 2.08 3-2.87 3.88-6.88 3.88-10.9A2 2 0 0 0 244 56.9zm-11.5 1.22c-1.69.13-3.42.13-5.16.18a52.79 52.79 0 0 0 1.75-6.71c.78-3.1 1.41-6.24 2-9.38l1-5.24c.13-.67.17-1.54.28-2.38.46 1.57.65 3.36 1 4.67.53 2.28 1.14 4.53 1.63 6.82.81 3.72 1.06 7.86 2.16 11.57-1.51.19-3.07.35-4.63.47zM260.43 29.73c-1.39 5.55-2.85 11.09-4.48 16.57l-.46 1.55-.77-1.21c-1.19-1.9-2.34-3.83-3.48-5.75a114.21 114.21 0 0 1-5.32-11.17c-.69-1.52-2.78-.37-2.52 1.06.75 4.15 2.76 8.23 4.54 12 1.51 3.21 3.23 7.66 6 10.06A61.71 61.71 0 0 1 249.85 63c-.73 1.37.48 3.36 2.14 2.78 2.44-.85 2.9-3.74 3.73-5.94 1.19-3.14 2.18-6.36 3.12-9.59a198.34 198.34 0 0 0 4.54-19.69c.35-1.93-2.47-2.77-2.95-.83zM274.3 52.42c.74-1.82.47-3.79.47-5.73 0-2.1 0-4.2.05-6.3.07-3.92.59-8 0-11.9-.21-1.46-2.64-1.19-2.69.18-1.12 3.7-1.09 7.89-1.34 11.72-.13 2.1-.23 4.2-.32 6.3-.08 1.94-.37 3.9.37 5.73a1.8 1.8 0 0 0 3.46 0zM274.29 59.43a2.25 2.25 0 0 0-2.22-.59 3.89 3.89 0 0 0-1.21.67 2.44 2.44 0 0 0-.34.3 3.31 3.31 0 0 0-.52.75l-.11.23a3.47 3.47 0 0 0-.14 2.17 2.26 2.26 0 0 0 2.78 1.58 5.18 5.18 0 0 0 .49-.22 2.35 2.35 0 0 0 .8-.28 2.75 2.75 0 0 0 1.34-2.28v-.22a2.85 2.85 0 0 0-.87-2.11zM5.44 84.53h.42a.3.3 0 0 0 .2-.07 1 1 0 0 0 .15-.16 3.64 3.64 0 0 1 .48-.45 1.17 1.17 0 0 1 .72-.19 1.57 1.57 0 0 1 .79.22.91.91 0 0 1 .39.86 2 2 0 0 1-.27 1.06 2.47 2.47 0 0 1-.66.73 2.9 2.9 0 0 1-.84.42 2.64 2.64 0 0 1-.78.14 3.87 3.87 0 0 1-.68-.06 3.58 3.58 0 0 1-.73-.22h-.32a1.13 1.13 0 0 0-1 .45 3.31 3.31 0 0 0-.53 1.12 7.5 7.5 0 0 0-.25 1.48q-.06.8-.06 1.51a3.88 3.88 0 0 1 1.14-.34A9.92 9.92 0 0 1 5 91q3.48.47 3.48 4.2a7.1 7.1 0 0 1-1 3.41 5.39 5.39 0 0 1-1.2 1.42 3 3 0 0 1-1.71.69 4.59 4.59 0 0 1-2.5-.72 4.28 4.28 0 0 1-1.38-1.81 8 8 0 0 1-.58-2.45Q0 94.37 0 92.94v-1.63-1.13a12.6 12.6 0 0 1 .14-1.46 9.29 9.29 0 0 1 .38-1.55 4.85 4.85 0 0 1 .73-1.4 3.63 3.63 0 0 1 1.19-1 3.7 3.7 0 0 1 1.78-.39 3.44 3.44 0 0 1 1.11.14l-.8.21zM2.9 96.84a2.63 2.63 0 0 0 .51.82 1.31 1.31 0 0 0 1 .42 1 1 0 0 0 .68-.31 2.31 2.31 0 0 0 .54-.77 5.34 5.34 0 0 0 .29-1A5.39 5.39 0 0 0 6 95a1.46 1.46 0 0 0-.14-.66 1.55 1.55 0 0 0-.35-.47 1.35 1.35 0 0 0-.45-.27 1.26 1.26 0 0 0-.4-.08 2.39 2.39 0 0 0-.57.08 1.94 1.94 0 0 0-.64.29 1.76 1.76 0 0 0-.52.58 1.83 1.83 0 0 0-.21.93v.82a1.73 1.73 0 0 0 .18.62zM19.5 90.56h-1.32a7.55 7.55 0 0 1-1 0h-.31v5.04a19.35 19.35 0 0 1-.27 2.1 5.73 5.73 0 0 1-.6 1.5 2.48 2.48 0 0 1-.84 1 2.31 2.31 0 0 1-1.28.33h-.47a2.41 2.41 0 0 1-.94-.19.93.93 0 0 1-.49-.89v-.14a1.45 1.45 0 0 1 .14-.46 2.17 2.17 0 0 1 .29-.46 1.82 1.82 0 0 1 .39-.35.83.83 0 0 1 .47-.14h.54q.26 0 .34-.48t.13-1.17v-.66q0-.33.07-.64v-5.43a2 2 0 0 1 .28-1.11 1 1 0 0 1 .85-.42 1 1 0 0 1 .33 0l.85.07a5.77 5.77 0 0 0 .75.07h1.31l2.4-.07a.81.81 0 0 1 .52.19.86.86 0 0 1 .31.45q0 .26.07.49v.47a.75.75 0 0 1 0 .12 1.17 1.17 0 0 0 0 .19v4.6l.07 1.07a5.28 5.28 0 0 1 0 .69V98.26A5.65 5.65 0 0 1 22 99.3a2.45 2.45 0 0 1-.38.89.89.89 0 0 1-.78.36 1.42 1.42 0 0 1-1-.39A1.55 1.55 0 0 1 19.4 99a2 2 0 0 1 0-.33 2.7 2.7 0 0 1 .07-.31l.06-.31q0-.19.07-.51t0-.8v-1.17-1a9.36 9.36 0 0 0-.15-1.17zM32.3 95.71q0 .49.07 1.07t0 1.12a3.38 3.38 0 0 1-.26 1.31 2.11 2.11 0 0 1-1 1 2.63 2.63 0 0 1-1.15.34h-1.43a3 3 0 0 1-1.25-.35 3.6 3.6 0 0 1-1.62-1.79 3 3 0 0 1-.24-1.15 4.12 4.12 0 0 1 1-2.77 4.78 4.78 0 0 1 3.14-1.4h.24v-.68-.82q0-.35-.11-.75t-.15-.45h-.12a1.65 1.65 0 0 0-1 .49 5.59 5.59 0 0 1-.62.53 1.27 1.27 0 0 1-.77.27 1.06 1.06 0 0 1-.77-.28 1.38 1.38 0 0 1-.29-1 1.76 1.76 0 0 1 .45-1.22 3.73 3.73 0 0 1 1-.8 4.34 4.34 0 0 1 1.14-.42 4.57 4.57 0 0 1 .82-.12 2.77 2.77 0 0 1 1.48.36 2.6 2.6 0 0 1 .93 1 4.58 4.58 0 0 1 .47 1.47 11.65 11.65 0 0 1 .13 1.78v2zm-3.08 2.38h.21a.69.69 0 0 0 .22 0 .24.24 0 0 0 .16-.13.68.68 0 0 0 .06-.32v-.36V96.17v-.48a3 3 0 0 0-1.29.46 1.49 1.49 0 0 0-.58 1.31.37.37 0 0 0 .13.28 1.28 1.28 0 0 0 .29.2 1.38 1.38 0 0 0 .33.12h.24zM35.84 100.28a.93.93 0 0 1-.49-.38.84.84 0 0 1-.12-.59 3.3 3.3 0 0 1-.08-.47v-.28-.77a4 4 0 0 1 .06-.55v-.65-1.33-.52-.59q0-.45-.08-1.06t0-1.53a7.29 7.29 0 0 1 0-.8l.06-.49a1.62 1.62 0 0 0 0-.31.33.33 0 0 1 0-.14v-.26a.34.34 0 0 0 0-.07.3.3 0 0 1 0-.07 1.55 1.55 0 0 1 .52-1.34l.19-.16a10.5 10.5 0 0 1 1.55-.14h4.16a.77.77 0 0 1 .4.13 1.33 1.33 0 0 1 .33.27 1.44 1.44 0 0 1 .16.36 1.51 1.51 0 0 1 0 .4 1.45 1.45 0 0 1-.14.69 1 1 0 0 1-.36.39 1.48 1.48 0 0 1-.51.18 3.56 3.56 0 0 1-.59 0H37.7v8.39a1.12 1.12 0 0 1 0 .21v.14a1.44 1.44 0 0 1-1.18 1.46l-.47-.16zM55.71 92.58a6.67 6.67 0 0 1 .24 2 9.76 9.76 0 0 1-.26 2.25 5.78 5.78 0 0 1-.85 2 4.31 4.31 0 0 1-1.55 1.38 5 5 0 0 1-2.37.52h-.31q-5.29-.85-5.71-6.4v-.66a4.54 4.54 0 0 1 .33-1.65 6.72 6.72 0 0 1 .89-1.6A8.2 8.2 0 0 1 47.41 89 5.71 5.71 0 0 1 49 88a4.38 4.38 0 0 1 1.6-.28 4.18 4.18 0 0 1 2 .53 5.34 5.34 0 0 1 1.62 1.35 6.64 6.64 0 0 1 1.49 2.98zm-3.37 5.13a2.85 2.85 0 0 0 .79-1.28 7.16 7.16 0 0 0 .29-1.8v-.26a5.09 5.09 0 0 0-.27-1.53 6 6 0 0 0-.67-1.46l-.59-.64a2 2 0 0 0-1.32-.52 3.13 3.13 0 0 0-1.85.69 3.19 3.19 0 0 0-.84 1.42 3.68 3.68 0 0 0-.32 1 7.14 7.14 0 0 0-.08 1.08 4.3 4.3 0 0 0 .16 1.19 3.16 3.16 0 0 0 1.47 1.88 3.77 3.77 0 0 0 1.4.46H50.84a6.18 6.18 0 0 0 .89-.06 1 1 0 0 0 .61-.17zM67.1 89a1.5 1.5 0 0 1 0 .27 1.79 1.79 0 0 1-.12.36 1.16 1.16 0 0 1-.25.35.93.93 0 0 1-.42.24 8.16 8.16 0 0 0-.85 0h-1.51a2.31 2.31 0 0 1 0 .42v.94a5.45 5.45 0 0 1 0 .57 1.22 1.22 0 0 1 0 .19 1.17 1.17 0 0 0 0 .19q0 .21 0 .53T64 94v4.45a2.53 2.53 0 0 1-.35 1.32 1.18 1.18 0 0 1-1.1.59 1.21 1.21 0 0 1-.72-.24 1.07 1.07 0 0 1-.4-.78q.07-.61.09-1.41t0-1.48V94.73v-1-1.86-1.29-.51h-.09q-.4 0-1 .07t-1 0q-1.06 0-1.2-1.65a1.93 1.93 0 0 1 1.55-.85h5.2a4.78 4.78 0 0 1 .54 0 2.92 2.92 0 0 1 .59.13 1.66 1.66 0 0 1 .51.27 1 1 0 0 1 .32.46zM74.33 100.45h-2.62a3.37 3.37 0 0 1-1-.12 1 1 0 0 1-.51-.33 1 1 0 0 1-.18-.54v-2.92-.73-.91-1.19-1.14-3.66a.93.93 0 0 1 .13-.49 1.1 1.1 0 0 1 .32-.34 1.54 1.54 0 0 1 .41-.2 1.44 1.44 0 0 1 .44-.07h.24q.94-.07 1.53-.07a10.47 10.47 0 0 1 1.35.09 4.11 4.11 0 0 1 1.34.41 3 3 0 0 1 1 .89 2.75 2.75 0 0 1 .47 1.52v1.06a.56.56 0 0 0 0 .26 3.14 3.14 0 0 1-.59 2.03 3.67 3.67 0 0 1 .66.89 2.83 2.83 0 0 1 .31 1.11v1a5.27 5.27 0 0 1-.22 1.68 2.29 2.29 0 0 1-.65 1 2.48 2.48 0 0 1-1 .52 9.52 9.52 0 0 1-1.43.25zM72.52 98a2.33 2.33 0 0 0 .48 0h.75a2.65 2.65 0 0 0 1.19-.18.69.69 0 0 0 .3-.65V97a.54.54 0 0 1 0-.11 1.39 1.39 0 0 0 0-.23 1.56 1.56 0 0 0-.08-.49 1.1 1.1 0 0 0-.32-.46 1.73 1.73 0 0 0-.62-.34 3.06 3.06 0 0 0-1-.13h-.21a.88.88 0 0 0-.41.07.32.32 0 0 0-.16.2.68.68 0 0 0 0 .29 2.16 2.16 0 0 1 0 .32v1.24a1 1 0 0 0 0 .17zm.48-7.8h-.44v1.38a1.07 1.07 0 0 1 0 .29v.26a.49.49 0 0 0 0 .12.52.52 0 0 1 0 .12v.26a3.12 3.12 0 0 1 .52 0 2.32 2.32 0 0 0 .41 0 1.67 1.67 0 0 0 1.06-.25 1 1 0 0 0 .34-.65 3.91 3.91 0 0 1 0-.72.77.77 0 0 0-.35-.63l-.26-.07a7 7 0 0 0-.7-.17 3.2 3.2 0 0 0-.58.06zM91.33 92.58a6.67 6.67 0 0 1 .24 2 9.76 9.76 0 0 1-.26 2.25 5.78 5.78 0 0 1-.85 2 4.31 4.31 0 0 1-1.55 1.38 5 5 0 0 1-2.37.52h-.31q-5.29-.85-5.71-6.4v-.66a4.54 4.54 0 0 1 .33-1.65 6.72 6.72 0 0 1 .89-1.6A8.2 8.2 0 0 1 83 89a5.71 5.71 0 0 1 1.59-1 4.38 4.38 0 0 1 1.6-.28 4.18 4.18 0 0 1 2 .53 5.34 5.34 0 0 1 1.62 1.35 6.64 6.64 0 0 1 1.52 2.98zM88 97.71a2.85 2.85 0 0 0 .79-1.28 7.16 7.16 0 0 0 .29-1.8v-.26a5.09 5.09 0 0 0-.27-1.53 6 6 0 0 0-.67-1.46l-.59-.64a2 2 0 0 0-1.32-.52 3.13 3.13 0 0 0-1.85.69 3.19 3.19 0 0 0-.84 1.42 3.68 3.68 0 0 0-.32 1 7.14 7.14 0 0 0-.08 1.08 4.3 4.3 0 0 0 .16 1.19 3.16 3.16 0 0 0 1.47 1.88 3.77 3.77 0 0 0 1.4.46H86.5a6.18 6.18 0 0 0 .89-.06 1 1 0 0 0 .61-.17zM102.4 95q.07.9.07 1.29a5.8 5.8 0 0 1-.25 1.72 4 4 0 0 1-.72 1.38 3.29 3.29 0 0 1-1.18.91 3.86 3.86 0 0 1-1.65.33h-.61a3.23 3.23 0 0 1-.64-.12v4.58a3.52 3.52 0 0 1 0 .58v.19l-.07.85q0 .54-.85.85a1.54 1.54 0 0 1-1.28-.45 1.89 1.89 0 0 1-.34-1.18v-.28-1.18-2.38q0-.54 0-1t-.07-1l-.09-2.68q-.07-.94-.07-1.87a9.69 9.69 0 0 0-.16-1.8q0-.47-.09-1t0-1.06a5.07 5.07 0 0 1 .31-1.86 3.39 3.39 0 0 1 .86-1.28 3.56 3.56 0 0 1 1.3-.75 5.15 5.15 0 0 1 1.64-.25 4.21 4.21 0 0 1 1.81.33 2.87 2.87 0 0 1 1.08.87A3.44 3.44 0 0 1 102 90a8.27 8.27 0 0 1 .21 1.34q0 .33.07 1.25t.12 2.41zm-3.25 3a1.06 1.06 0 0 0 .62-.89 8.51 8.51 0 0 0 .13-1.53q0-.4-.08-1.31T99.69 92a3.68 3.68 0 0 0-.25-1.39.92.92 0 0 0-.93-.61h-.33l-.26.06a1.66 1.66 0 0 0-.33.13q-.35.14-.49.8l-.08.58A3.14 3.14 0 0 0 97 92q0 .24 0 .89t.08 1.77a18.83 18.83 0 0 0 .26 2.54 1.41 1.41 0 0 0 .41.58 1.21 1.21 0 0 0 .79.22h.2zM106.19 91.62v-.92-1.2a2.32 2.32 0 0 1 .19-.88 1.47 1.47 0 0 1 .75-.74h.28a2.54 2.54 0 0 1 .67.07.82.82 0 0 1 .39.22.88.88 0 0 1 .2.4q.06.25.11.58l-.14 4.12.27-.47.27-.47.64-1q.33-.54.66-1 .09-.14.18-.29l.18-.32.42-.66a3.6 3.6 0 0 1 .48-.6 2.39 2.39 0 0 1 .59-.44 1.54 1.54 0 0 1 .72-.16 1.74 1.74 0 0 1 .64.14.86.86 0 0 1 .36.33.72.72 0 0 1 .13.47q0 .87-.07 1.7t0 1.74V99.05a2 2 0 0 1-.2.91q-.2.41-1 .41a1.3 1.3 0 0 1-1.06-.42 1.79 1.79 0 0 1-.35-1.18v-2.68a13.74 13.74 0 0 1 .07-1.41q0-.35.07-.71t0-.68v-.24l-2.75 4.24a1.8 1.8 0 0 1-.27.44l-.24.26-.07.06a1.26 1.26 0 0 1 .27-.14V98.5a2.07 2.07 0 0 0 0 .21v.82a1.5 1.5 0 0 1-1.39.87H107a1.74 1.74 0 0 1-.58-.38 1.48 1.48 0 0 1-.31-.48A2 2 0 0 1 106 99v-.62-.81q0-.39.06-.81 0-.71.08-1.86t.05-3.28zM126 89a1.5 1.5 0 0 1 0 .27 1.79 1.79 0 0 1-.12.36 1.16 1.16 0 0 1-.25.35.93.93 0 0 1-.42.24 8.16 8.16 0 0 0-.85 0h-1.48a2.31 2.31 0 0 1 0 .42v.94a5.45 5.45 0 0 1 0 .57 1.22 1.22 0 0 1 0 .19 1.17 1.17 0 0 0 0 .19q0 .21 0 .53t.09 1v4.45a2.53 2.53 0 0 1-.35 1.32 1.18 1.18 0 0 1-1.1.59 1.21 1.21 0 0 1-.72-.24 1.07 1.07 0 0 1-.4-.78q.07-.61.09-1.41t0-1.48V94.79v-1-1.86-1.29-.51h-.09q-.4 0-1 .07t-1 0q-1.06 0-1.2-1.65a1.93 1.93 0 0 1 1.55-.85h5.2a4.78 4.78 0 0 1 .54 0 2.92 2.92 0 0 1 .59.13 1.66 1.66 0 0 1 .51.27 1 1 0 0 1 .32.46zM134.94 96.3q.78 0 .87 1a7.74 7.74 0 0 1-.2 1.26 3.3 3.3 0 0 1-.31.79 1.66 1.66 0 0 1-.4.48 4.36 4.36 0 0 1-.51.34 2.89 2.89 0 0 1-1 .29 7.45 7.45 0 0 0-.75.08h-.12a8.14 8.14 0 0 1-1-.08 3 3 0 0 1-1.17-.41 3 3 0 0 1-1.35-1.19 5.43 5.43 0 0 1-.52-2q0-.57-.06-1t-.06-.88v-.89-1-1a7 7 0 0 1 .13-1 4 4 0 0 1 1.13-2.64 3.57 3.57 0 0 1 2.38-.75h.16a.58.58 0 0 1 .21 0h-.07a3.72 3.72 0 0 1 1.45.42 2.39 2.39 0 0 1 .93 1 6.2 6.2 0 0 1 .54 1.77q.19 1.08.31 2.68v.28a1.75 1.75 0 0 1-1.62 1h-2.41a2.4 2.4 0 0 0-.49 0v2.05a1.61 1.61 0 0 0 .18.71 1.3 1.3 0 0 0 .54.53 2.09 2.09 0 0 0 1.13.16 1.11 1.11 0 0 0 .71-1q.43-1.23 1.37-1zm-4-4a3.56 3.56 0 0 1 .58 0h1.35q.19-2.07-.85-2.14a.7.7 0 0 0-.24 0 .58.58 0 0 0-.48.22 1.45 1.45 0 0 0-.26.54 3.53 3.53 0 0 0-.11.64v.7zM146.4 90.56h-1.32a7.55 7.55 0 0 1-1 0h-.31v5.04a19.39 19.39 0 0 1-.27 2.1 5.76 5.76 0 0 1-.51 1.55 2.48 2.48 0 0 1-.84 1 2.31 2.31 0 0 1-1.28.33h-.47a2.4 2.4 0 0 1-.94-.19.93.93 0 0 1-.49-.89v-.14a1.44 1.44 0 0 1 .14-.46 2.18 2.18 0 0 1 .29-.46 1.82 1.82 0 0 1 .39-.35.83.83 0 0 1 .47-.14h.54q.26 0 .34-.48t.13-1.17v-.66q0-.33.07-.64v-5.48a2 2 0 0 1 .28-1.11 1 1 0 0 1 .85-.42 1 1 0 0 1 .33 0l.85.07a5.77 5.77 0 0 0 .75.07h1.31L148 88a.81.81 0 0 1 .52.19.86.86 0 0 1 .31.45q0 .26.07.49v.47a.76.76 0 0 1 0 .12 1.15 1.15 0 0 0 0 .19v4.6l.07 1.07a5.26 5.26 0 0 1 0 .69V98.2a5.61 5.61 0 0 1-.13 1.11 2.45 2.45 0 0 1-.38.89.89.89 0 0 1-.78.36 1.42 1.42 0 0 1-1-.39 1.55 1.55 0 0 1-.39-1.14 2 2 0 0 1 0-.33 2.7 2.7 0 0 1 .07-.31l.06-.31q0-.19.07-.51t0-.8V95.6v-1a9.36 9.36 0 0 0-.15-1.17zM157.16 100.38h-2.66a5.47 5.47 0 0 1-.6 0 1.36 1.36 0 0 1-.62-.25.91.91 0 0 1-.22-.31.83.83 0 0 1-.11-.35V99v-.26-.26-.67-.69V95.57a2.87 2.87 0 0 1 0-.4v-.26-.26-.66-2.14q0-.71 0-1.45T153 89a.94.94 0 0 1 .48-.79 1.7 1.7 0 0 1 .84-.25h.33a.76.76 0 0 1 .57.25.81.81 0 0 1 .24.57v3.98h.54a7.92 7.92 0 0 1 1.46.14 4.25 4.25 0 0 1 1.38.51 3.09 3.09 0 0 1 1 1 3 3 0 0 1 .41 1.63l.07 1.54a2.94 2.94 0 0 1-.28 1.38 2.26 2.26 0 0 1-.74.84 3.23 3.23 0 0 1-1 .45 6.12 6.12 0 0 1-1.2.17zm-1.88-3.57v1.11h1.25a2.16 2.16 0 0 0 1.14-.2.72.72 0 0 0 .27-.62v-.72a1.26 1.26 0 0 0-.2-.62 1.16 1.16 0 0 0-.61-.42 3.93 3.93 0 0 0-1.24-.15h-.52a4.53 4.53 0 0 0-.07.6q-.02.41-.02 1.02zM171.36 88.41a5.67 5.67 0 0 1 .33 1.93v1.18a13.78 13.78 0 0 0-.07 1.41V93a1.5 1.5 0 0 0 0 .19 3.1 3.1 0 0 0 .08.35 2.49 2.49 0 0 0 0 .28v1.2s.05.42.07.66a8.23 8.23 0 0 1 0 .87v.72a.56.56 0 0 1 0 .11.63.63 0 0 0 0 .13V98.09a3.15 3.15 0 0 0 0 .32v.09a4.17 4.17 0 0 1 0 .45v.31q0 .26-.09.47a.82.82 0 0 1-.16.35.79.79 0 0 1-.34.22 1.79 1.79 0 0 1-.6.08h-.38l-.4-.09a.82.82 0 0 1-.44-.29.76.76 0 0 1-.18-.48l.07-2.64q0-.26 0-.61t-.07-.68v-.2a.52.52 0 0 1 0-.11 1.24 1.24 0 0 0 0-.14v-.31h-1.77l-.38.14v.4a2.35 2.35 0 0 1 0 .26V98.74a2.18 2.18 0 0 1 0 .4c0 .13-.05.24-.08.35l-.19.49a1.2 1.2 0 0 1-.58.44 1.82 1.82 0 0 1-.58.15 1 1 0 0 1-.88-.35 1.55 1.55 0 0 1-.26-.94 2.79 2.79 0 0 1 0-.28v-.26-.48-.2s0-.05 0 0v-.65-1.86-.87-.87V92v-.88a6.59 6.59 0 0 1 .08-.77v-.85-.85a.76.76 0 0 1 .12-.39 1.2 1.2 0 0 1 .26-.32 1.51 1.51 0 0 1 .78-.21 1.53 1.53 0 0 1 .9.31 1 1 0 0 1 .24.32.84.84 0 0 1 .12.36l-.07 2.4v1.06a1.21 1.21 0 0 1 0 .24h2.29q0-.52.06-.81t0-.62v-1V89a1.47 1.47 0 0 1 .25-.82 1.12 1.12 0 0 1 1-.38 1.28 1.28 0 0 1 .71.21zM179.84 100.38h-2.66a5.47 5.47 0 0 1-.6 0 1.35 1.35 0 0 1-.62-.25.9.9 0 0 1-.22-.31.83.83 0 0 1-.11-.35V99v-.26-.26-.67-.69V95.57a2.87 2.87 0 0 1 0-.4v-.26-.26-.66-2.14-1.45-1.42a.94.94 0 0 1 .48-.79 1.69 1.69 0 0 1 .84-.25h.33a.75.75 0 0 1 .57.25.8.8 0 0 1 .24.57v3.98h.66a7.92 7.92 0 0 1 1.46.14 4.26 4.26 0 0 1 1.38.51 3.08 3.08 0 0 1 1 1A3 3 0 0 1 183 96l.07 1.54a2.94 2.94 0 0 1-.28 1.38 2.26 2.26 0 0 1-.74.84 3.24 3.24 0 0 1-1 .45 6.13 6.13 0 0 1-1.2.17zM178 96.81v1.11h1.25a2.16 2.16 0 0 0 1.14-.2.72.72 0 0 0 .27-.62v-.72a1.26 1.26 0 0 0-.2-.62 1.16 1.16 0 0 0-.61-.42 3.93 3.93 0 0 0-1.24-.15h-.52a4.48 4.48 0 0 0-.07.6q-.02.41-.02 1.02zm5.89-6.18v-.85-.27-.29a1.38 1.38 0 0 1 1-1.46.54.54 0 0 1 .19 0h.12a1.43 1.43 0 0 1 .75.25 1.16 1.16 0 0 1 .44 1V98.93a1.47 1.47 0 0 1-1 1.48H185a1.58 1.58 0 0 1-.36 0 .94.94 0 0 1-.37-.19 1.1 1.1 0 0 1-.29-.38 1.6 1.6 0 0 1-.14-.61v-8.6zM190.31 91.62v-.92-1.2a2.32 2.32 0 0 1 .19-.88 1.48 1.48 0 0 1 .75-.74h.28a2.54 2.54 0 0 1 .67.07.82.82 0 0 1 .39.22.88.88 0 0 1 .2.4q.06.25.11.58l-.14 4.12.27-.47.27-.47.64-1q.33-.54.66-1l.18-.29.18-.32.42-.66a3.61 3.61 0 0 1 .48-.6 2.39 2.39 0 0 1 .59-.44 1.54 1.54 0 0 1 .72-.16 1.74 1.74 0 0 1 .64.14.86.86 0 0 1 .36.33.72.72 0 0 1 .13.47q0 .87-.07 1.7t0 1.74V99.05a2 2 0 0 1-.2.91q-.2.41-1 .41a1.3 1.3 0 0 1-1.06-.42 1.79 1.79 0 0 1-.35-1.18v-2.68a13.69 13.69 0 0 1 .07-1.41q0-.35.07-.71v-.92L193 97.31a1.79 1.79 0 0 1-.27.44l-.24.26-.07.06a1.25 1.25 0 0 1 .27-.14V98.52a2 2 0 0 0 0 .21v.82a1.5 1.5 0 0 1-1.39.87h-.24a1.74 1.74 0 0 1-.58-.38 1.48 1.48 0 0 1-.31-.48 2 2 0 0 1-.13-.57v-.62-.81q0-.39.06-.81 0-.71.08-1.86t.13-3.27zm3.24-7.62a.62.62 0 0 0 .25.25 1 1 0 0 0 .32.14 2.35 2.35 0 0 0 .39 0h.24a1.08 1.08 0 0 0 .34-.06.91.91 0 0 0 .33-.2.72.72 0 0 0 .2-.42 1.34 1.34 0 0 1 .44-.92 1.21 1.21 0 0 1 .79-.31 1.06 1.06 0 0 1 .77.31 1.22 1.22 0 0 1 .32.92 3.48 3.48 0 0 1-.21 1.21 2.69 2.69 0 0 1-.66 1 3.38 3.38 0 0 1-1.13.71 4.4 4.4 0 0 1-1.62.27 2.39 2.39 0 0 1-1.15-.31 4.19 4.19 0 0 1-1-.77 3.82 3.82 0 0 1-.72-1 2.46 2.46 0 0 1-.27-1.06 1 1 0 0 1 .35-.84 1.19 1.19 0 0 1 .78-.29 1 1 0 0 1 .82.28 2.81 2.81 0 0 1 .38.75 1.55 1.55 0 0 0 .04.34zM215.51 90.16h-2.63c0 .17-.06.29-.07.35V94.68l-.09 1.76v2.16l.06.75a.9.9 0 0 1-.08.32.91.91 0 0 1-.18.29 1.4 1.4 0 0 1-1 .47 1.71 1.71 0 0 1-1.15-.61l-.12-1.11a6 6 0 0 1-.06-.86q0-.6 0-1.07t0-.6v-.55V93a3.23 3.23 0 0 1 0-.44v-1.84-.67a1.74 1.74 0 0 1 .07-.36.7.7 0 0 0 0-.16.62.62 0 0 1 0-.24v-.21a1.9 1.9 0 0 1 .28-1.09 1 1 0 0 1 .85-.41 1.39 1.39 0 0 1 .33 0l1.67.14h3.74a.77.77 0 0 1 .55.21.8.8 0 0 1 .25.54l.08.46a2.25 2.25 0 0 1 0 .39v.53a1.34 1.34 0 0 1-.08.39v.09l-.09 4v.69a2.76 2.76 0 0 0 0 .39v2.46a6.38 6.38 0 0 1-.13 1.18 2.69 2.69 0 0 1-.39 1 .89.89 0 0 1-.79.4 1.28 1.28 0 0 1-.91-.4 1.53 1.53 0 0 1-.41-1.15 4.67 4.67 0 0 1 0-.53c0-.13 0-.28.07-.43s.06-.47.09-.75a1.13 1.13 0 0 1 0-.22v-.46a.46.46 0 0 1 0-.21zM229.89 95q.07.9.07 1.29a5.79 5.79 0 0 1-.25 1.72 4 4 0 0 1-.72 1.38 3.29 3.29 0 0 1-1.18.91 3.86 3.86 0 0 1-1.65.33h-.61a3.23 3.23 0 0 1-.64-.12v4.58a3.5 3.5 0 0 1 0 .58v.19l-.07.85q0 .54-.85.85a1.54 1.54 0 0 1-1.28-.45 1.89 1.89 0 0 1-.34-1.18v-.28-1.18-2.38q0-.54 0-1t-.07-1l-.09-2.68q-.07-.94-.07-1.87a9.69 9.69 0 0 0-.16-1.8q0-.47-.09-1t0-1.06a5.07 5.07 0 0 1 .31-1.86 3.39 3.39 0 0 1 .86-1.28 3.56 3.56 0 0 1 1.29-.75 5.15 5.15 0 0 1 1.64-.25 4.21 4.21 0 0 1 1.81.33 2.87 2.87 0 0 1 1.08.87 3.44 3.44 0 0 1 .59 1.2 8.23 8.23 0 0 1 .21 1.34q0 .33.07 1.25t.14 2.47zm-3.25 3a1.07 1.07 0 0 0 .62-.89 8.5 8.5 0 0 0 .13-1.53q0-.4-.08-1.31t-.12-2.27a3.69 3.69 0 0 0-.25-1.39.92.92 0 0 0-.94-.61h-.33l-.26.06a1.66 1.66 0 0 0-.33.13q-.35.14-.49.8l-.08.58a3.14 3.14 0 0 0 0 .44q0 .24 0 .89t.08 1.77a18.88 18.88 0 0 0 .26 2.54 1.41 1.41 0 0 0 .41.58 1.21 1.21 0 0 0 .79.22h.2zM243.62 92.58a6.67 6.67 0 0 1 .24 2 9.76 9.76 0 0 1-.26 2.25 5.78 5.78 0 0 1-.85 2 4.32 4.32 0 0 1-1.55 1.38 5 5 0 0 1-2.37.52h-.31q-5.29-.85-5.71-6.4v-.66a4.55 4.55 0 0 1 .33-1.65 6.73 6.73 0 0 1 .89-1.6 8.21 8.21 0 0 1 1.3-1.42 5.72 5.72 0 0 1 1.55-.94 4.38 4.38 0 0 1 1.6-.28 4.18 4.18 0 0 1 2 .53 5.34 5.34 0 0 1 1.62 1.35 6.64 6.64 0 0 1 1.52 2.92zm-3.37 5.13a2.85 2.85 0 0 0 .79-1.28 7.15 7.15 0 0 0 .29-1.8v-.26a5.1 5.1 0 0 0-.27-1.53 6 6 0 0 0-.67-1.46l-.59-.64a2 2 0 0 0-1.32-.52 3.13 3.13 0 0 0-1.85.69 3.19 3.19 0 0 0-.84 1.42 3.68 3.68 0 0 0-.32 1 7.16 7.16 0 0 0-.08 1.08 4.3 4.3 0 0 0 .16 1.19 3.16 3.16 0 0 0 1.45 1.94 3.77 3.77 0 0 0 1.4.46H238.73a6.18 6.18 0 0 0 .89-.06 1 1 0 0 0 .63-.23zM252.8 96.3q.78 0 .87 1a7.74 7.74 0 0 1-.2 1.26 3.3 3.3 0 0 1-.31.79 1.66 1.66 0 0 1-.4.48 4.36 4.36 0 0 1-.51.34 2.89 2.89 0 0 1-1 .29 7.45 7.45 0 0 0-.75.08h-.12a8.14 8.14 0 0 1-1-.08 3 3 0 0 1-1.17-.41 3 3 0 0 1-1.25-1.24 5.42 5.42 0 0 1-.52-2q0-.57-.06-1t-.06-.88v-.89-1-1a6.94 6.94 0 0 1 .13-1 4 4 0 0 1 1.13-2.64 3.57 3.57 0 0 1 2.38-.75h.04a.58.58 0 0 1 .21 0h-.07a3.72 3.72 0 0 1 1.45.42 2.39 2.39 0 0 1 .93 1 6.2 6.2 0 0 1 .54 1.77q.19 1.08.31 2.68v.28a1.75 1.75 0 0 1-1.62 1h-2.4a2.4 2.4 0 0 0-.49 0v2.05a1.62 1.62 0 0 0 .18.71 1.3 1.3 0 0 0 .54.53 2.09 2.09 0 0 0 1.13.16 1.11 1.11 0 0 0 .71-1q.46-1.18 1.38-.95zm-4-4a3.57 3.57 0 0 1 .58 0h1.35q.19-2.07-.85-2.14a.7.7 0 0 0-.24 0 .58.58 0 0 0-.48.22 1.44 1.44 0 0 0-.26.54 3.52 3.52 0 0 0-.11.64v.7zM264.43 98.59a.76.76 0 0 1 .11.29v.2a1.41 1.41 0 0 1-.45.91 1.31 1.31 0 0 1-.94.39 1.17 1.17 0 0 1-.64-.18 2.17 2.17 0 0 1-.52-.46 4.62 4.62 0 0 1-.45-.65q-.21-.36-.4-.72t-.4-.73q-.33-.54-.73-1.13t-.85-1.13l-.12.16v3.25a2.58 2.58 0 0 1-.06.48 2.42 2.42 0 0 1-.19.57 1.3 1.3 0 0 1-.37.46.91.91 0 0 1-.59.19 1.17 1.17 0 0 1-.74-.21 1.47 1.47 0 0 1-.42-.53 2.22 2.22 0 0 1-.2-.69 5.65 5.65 0 0 1 0-.71V96v-1.77-2.33-.55-.36V90v-.86a2.05 2.05 0 0 1 .14-.67.89.89 0 0 1 .39-.47 1.5 1.5 0 0 1 .75-.15 1.12 1.12 0 0 1 .85.48 1.8 1.8 0 0 1 .4 1.19v.33a2.35 2.35 0 0 1 0 .26 2.08 2.08 0 0 1 0 .22v1.71l.61-.77q.31-.39.57-.77l.24-.34.26-.36.47-.71a4.62 4.62 0 0 1 .51-.64 2.91 2.91 0 0 1 .55-.46 1.17 1.17 0 0 1 .64-.18 1.25 1.25 0 0 1 .91.35 1.3 1.3 0 0 1 .41.82 1.06 1.06 0 0 1-.24.8 8.26 8.26 0 0 1-.61.68l-.18.19-.18.21-.39.51-.39.51q-.54.75-1.18 1.51l.52.75.66 1 .73 1.09q.38.57.73 1.13l.13.18.2.22a3.54 3.54 0 0 1 .57.82zM276.16 89a1.5 1.5 0 0 1 0 .27 1.78 1.78 0 0 1-.12.36 1.16 1.16 0 0 1-.25.35.93.93 0 0 1-.42.24 8.16 8.16 0 0 0-.85 0H273a2.34 2.34 0 0 1 0 .42v.94a5.39 5.39 0 0 1 0 .57 1.23 1.23 0 0 1 0 .19 1.15 1.15 0 0 0 0 .19q0 .21 0 .53t.09 1v4.45a2.53 2.53 0 0 1-.35 1.32 1.18 1.18 0 0 1-1.1.59 1.21 1.21 0 0 1-.72-.24 1.07 1.07 0 0 1-.4-.78q.07-.61.09-1.41t0-1.48V94.79v-1-1.86-1.29-.51h-.09q-.4 0-1 .07t-1 0q-1.06 0-1.2-1.65a1.93 1.93 0 0 1 1.55-.85h5.2a4.77 4.77 0 0 1 .54 0 2.92 2.92 0 0 1 .59.13 1.66 1.66 0 0 1 .51.27 1 1 0 0 1 .32.46z"/></g></svg>