<svg xmlns="http://www.w3.org/2000/svg" width="241" height="56" viewBox="0 0 241 56"><g><g><g><g><path fill="#fff" d="M120.92 11.642c-.169 1.752-2.842 2.649-4.116 2.584v5.66h-1.783l-.509-14.929c1.995-.256 6.154-.79 6.409 1.795.17 1.644.17 3.267 0 4.89zm-2.1-4.592c-.381-.32-1.995-.342-1.995-.235 0 .555.128 4.762.149 4.807.085.085.807.106 1.019.063.233-.043.446-.108.636-.193.382-.191.362-.512.446-.854.064-.32.297-3.117-.254-3.588z"/></g><g><path fill="#fff" d="M129.304 7.05c0 .94-.042 3.758-.042 6.258l-.042 4.807c0 .896-.637 1.815-1.55 1.815-.572.02-1.464 0-2.25-.02-.465-.023-.932-.023-1.421-.023-1.358-.234-1.74-1.196-1.676-2.5l.022-10.38c.02-.385.084-.726.211-1.024.234-.513.658-1.047 1.57-1.07.913-.02 1.741-.02 2.356 0l.998.045c.34.064.636.17.912.32.445.277.912.811.912 1.772zm-2.015 4.635c0-2.605-.085-4.271-.085-4.271-.022-.236-.043-.706-.106-.898-.17-.32-.531-.363-1.231-.363-1.401 0-1.486.192-1.486 1.217 0 .321-.042 9.207-.042 9.676 0 1.025.106 1.218 1.506 1.218.679 0 1.168-.278 1.337-.598a4.72 4.72 0 0 0 .149-.641s-.042-3.204-.042-5.34z"/></g><g><path fill="#fff" d="M137.136 7.22l-3.502.429c-.19.021-.36.085-.51.192-.254.192-.509.555-.572 1.304-.085 1.472-.064 7.667.191 8.157.276.449.424.748 1.464.748.51 0 1.337-.064 2.016-.128.403-.043.806-.085 1.23-.149l.128 1.795-3.735.341c-1.93.17-2.97-.662-3.14-2.521L130.96 7.2c.02-.214.085-.427.212-.619.233-.321.636-.705 1.464-.898 1.633-.405 4.053-.746 4.605-.746z"/></g><g><path fill="#fff" d="M145.307 7.22l-3.501.429c-.19.021-.361.085-.51.192-.254.192-.509.555-.573 1.304-.084 1.472-.063 7.667.191 8.157.276.449.425.748 1.465.748.509 0 1.336-.064 2.016-.128.403-.043.806-.085 1.23-.149l.127 1.795-3.735.341c-1.93.17-2.97-.662-3.14-2.521l.255-10.188c.02-.214.085-.427.212-.619.234-.321.637-.705 1.464-.898 1.635-.405 4.054-.746 4.605-.746z"/></g><g><path fill="#fff" d="M151.95 19.93l.319-8.865-2.716 8.908-2.165.085-.298-15.144 2.08-.256.212 10.145 2.928-9.76 1.996-.085-.192 14.929z"/></g><g><path fill="#fff" d="M160.566 19.93l.318-8.864-2.716 8.907-2.164.086-.298-15.145 2.08-.256.212 10.146 2.928-9.76 1.995-.086-.19 14.93zm-1.167-15.25l-3.289-2.244.51-1.515 2.419 1.515 2.1-1.515 1.082 1.195z"/></g><g><path fill="#fff" d="M170.712 7.22l-3.502.429a1.05 1.05 0 0 0-.509.192c-.255.192-.51.555-.573 1.304-.085 1.472-.064 7.667.19 8.157.277.449.425.748 1.465.748.51 0 1.337-.064 2.016-.128.402-.043.806-.085 1.23-.149l.128 1.795-3.735.341c-1.93.17-2.97-.662-3.14-2.521l.254-10.188a1.35 1.35 0 0 1 .212-.619c.234-.321.637-.705 1.465-.898 1.634-.405 4.053-.746 4.604-.746z"/></g><g><path fill="#fff" d="M174.362 4.658l.085 6.407 3.84-6.279 1.21 1.474-3.82 6.152 3.501 6.236-1.676 1.325-2.928-6.45-.042 6.493h-1.867l-.17-15.017z"/></g><g><path fill="#fff" d="M187.838 7.05c0 .94-.042 3.758-.042 6.258l-.042 4.807c0 .896-.638 1.815-1.55 1.815-.572.02-1.464 0-2.25-.02-.465-.023-.932-.023-1.421-.023-1.358-.234-1.74-1.196-1.676-2.5l.022-10.38c.02-.385.084-.726.212-1.024.233-.513.657-1.047 1.57-1.07.912-.02 1.74-.02 2.355 0l.997.045c.34.064.637.17.913.32.446.277.912.811.912 1.772zm-2.016 4.635c0-2.605-.085-4.271-.085-4.271-.02-.236-.042-.706-.105-.898-.17-.32-.531-.363-1.231-.363-1.401 0-1.486.192-1.486 1.217 0 .321-.042 9.207-.042 9.676 0 1.025.106 1.218 1.506 1.218.679 0 1.168-.278 1.337-.598.064-.193.106-.406.148-.641 0 0-.042-3.204-.042-5.34z"/></g><g><path fill="#fff" d="M189.282 4.936c2.122-.108 4.541 0 6.664 0v1.6h-4.775c-.106 1.432.191 5.81.255 6.408h3.989v1.603l-3.99.534v.256c0 .833.191 2.115.213 2.948h4.308v1.602h-6.367z"/></g><g><path fill="#fff" d="M81.815 39.285l-.105 4.379-1.995.042-.042-2.37-7.618.043-.043 2.457h-1.995c0-.066-.021-.663-.042-1.262l-.043-1.152-.02-.129c-.064-.663-.022-1.303.042-1.965l1.697-.043a41.93 41.93 0 0 0 .849-2.199c.446-1.218.912-2.67.997-3.674.086-1.004.086-2.713.064-4.251l-.064-2.799 5.412-.085c.106 5.234.085 9.1.148 12.944zm-5.304-10.914c-.234.021-1.103-.021-1.23-.021-.022.106.063 4.42 0 5.104-.404 4.464-1.317 5.405-1.253 5.789.042.128 2.716-.064 2.716-.064s-.191-10.488-.233-10.808z"/></g><g><path fill="#fff" d="M90.115 35.783c-.063.747-.127 1.857-.212 2.797-.064.556-.106 1.11-.149 1.688-.02.15-.106.3-.211.428-.191.234-.573.469-1.274.491-.742.063-1.91.086-2.95.15l-1.888.085c-.403-5.532-.403-10.296-.212-14.974 1.337-.191 2.737-.277 4.01-.212.425-.022.807.041 1.146.191.573.236 1.168.727 1.273 1.752.085 1.047.085 2.007.064 2.712l-.064 1.154a2.39 2.39 0 0 1-.36.64c-.276.321-.765.663-1.507.728-.764.063-1.295.063-1.655.063-.213 0-.382 0-.53-.022l2.695.598c.36.064.657.17.933.32.488.257.955.664.891 1.41zm-3.395-.491c-.255-.215-1.146-.236-1.167-.193-.17.812.02 4.977.02 4.977s1.105.021 1.317-.32c.212-.364.276-.834.319-1.261.042-.384.084-.77.105-1.153.021-.705-.042-1.56-.594-2.05zm-1.167-3.397s.551-.02.742-.106c.383-.193.616-.812.658-1.175.064-.492.022-2.457 0-2.65-.042-.618-.785-.874-1.316-.768l-.042.02z"/></g><g><path fill="#fff" d="M96.419 41.293l.318-8.865-2.716 8.908-2.165.085-.296-15.144 2.08-.256.212 10.145 2.928-9.76 1.995-.085-.192 14.929z"/></g><g><path fill="#fff" d="M111.487 36.317l-.424 4.933-1.72-.086c.021-.705.064-1.366.128-1.986.064-1.046.149-2.222.212-2.67.064-.448-.191-.64-.446-.79a1.795 1.795 0 0 0-.509-.129h-1.867l-.403 5.703-1.762-.085-.063-5.318c-.107 0-.255 0-.404-.021-.254 0-.615-.022-1.04-.043-.424-.021-.636.427-.742.875-.064.256-.085.557-.106.898v3.738h-2.037l.085-1.39c.064-.832.043-1.88-.022-2.819-.063-.575.467-2.2 1.932-2.433-1.04-.065-1.55-.642-1.804-1.219a2.56 2.56 0 0 1-.233-1.088v-6.025h2.228c.042 0-.319 4.06-.234 5.32.064.661.212.94.445 1.11.107.108.256.149.404.17l1.634.086.085-6.856h1.06c.531 0 1.062.021 1.062.044 0 .02.042 1.708.106 3.394l.127 3.376c.064 0 .127 0 .234-.021.17-.022.446 0 .87-.066.488-.02.785-.298 1.018-.554.127-.15.234-.32.297-.513l.53-5.66h1.826c-.106.983-.17 1.879-.233 2.713-.107 1.431-.213 2.969-.213 3.524-.021.62-.445 1.003-.934 1.24a3.041 3.041 0 0 1-.934.32c1.487-.064 1.91 1.73 1.847 2.328z"/></g><g><path fill="#fff" d="M113.357 26.299c2.122-.107 4.54 0 6.663 0V27.9h-4.775c-.106 1.431.191 5.809.255 6.407h3.99v1.603l-3.99.533v.256c0 .834.19 2.115.212 2.95h4.308v1.6h-6.367z"/></g><g><path fill="#fff" d="M121.38 26.47c.063 0 .487.021.89.021.233.022.51.022.785.022l.404 7.219 2.249.128.637-7.668h1.528l-.043 14.844-1.761.043-.446-5.467-1.994-.13-.128 5.682-.913.109c-.444.063-.911.085-.849.02.085-.086-.487-14.823-.36-14.823z"/></g><g><path fill="#fff" d="M134.197 41.293l.318-8.865-2.715 8.908-2.165.085-.297-15.144 2.08-.256.212 10.145 2.928-9.76 1.995-.085-.192 14.929z"/></g><g><path fill="#fff" d="M137.997 26.299c2.122-.107 4.54 0 6.663 0V27.9h-4.775c-.106 1.431.191 5.809.256 6.407h3.989v1.603l-3.99.533v.256c0 .834.191 2.115.213 2.95h4.307v1.6h-6.366z"/></g><g><path fill="#fff" d="M154.318 26.32l.149 13.05 2.121-.127-.042-13.007h2.122V39.37l1.995-.214.572-12.921 2.207.04-.445 14.888-10.886.043.127-14.8z"/></g><g><path fill="#fff" d="M166.755 26.02l.085 6.408 3.84-6.278 1.21 1.473-3.82 6.152 3.501 6.237-1.676 1.324-2.928-6.45-.042 6.493h-1.868l-.17-15.017z"/></g><g><path fill="#fff" d="M180.23 28.413c0 .94-.042 3.759-.042 6.26l-.042 4.805c0 .897-.637 1.815-1.55 1.815-.572.02-1.464 0-2.25-.02-.465-.023-.932-.023-1.42-.023-1.358-.234-1.74-1.195-1.677-2.498l.022-10.38c.02-.386.084-.728.211-1.025.234-.513.658-1.048 1.57-1.07.913-.02 1.741-.02 2.356 0l.998.045c.34.064.636.17.912.32.446.277.913.81.913 1.771zm-2.015 4.636c0-2.606-.085-4.272-.085-4.272-.02-.235-.043-.706-.106-.897-.17-.32-.531-.363-1.23-.363-1.402 0-1.487.192-1.487 1.217 0 .321-.042 9.207-.042 9.675 0 1.025.107 1.218 1.507 1.218.678 0 1.167-.278 1.337-.597.064-.193.106-.406.148-.641 0 0-.042-3.205-.042-5.34z"/></g><g><path fill="#fff" d="M181.463 41.336l.127-1.859 1.125-.043c.848 0 2.08-.79 2.08-2.328 0-.748-.023-3.46-.023-5.98-.02-1.473-.02-3.096-.02-4.85l6.005-.04.403 15.185h-2.207l-.042-13.22h-2.165l-.043 8.97c-.105 2.029-1.972 4.121-3.585 4.121z"/></g><g><path fill="#fff" d="M198.44 35.57v1.366c0 .79-.043 1.773-.064 2.563-.063.834-.53 1.218-1.018 1.453-.275.15-.615.235-.976.256l-3.778-.043.277-14.994 1.718-.042.234 7.347h.446c.318 0 .806-.022 1.633-.043.785-.02 1.167.513 1.358 1.046.106.321.17.684.17 1.09zm-1.528.447c-.084-.341-.063-.661-.446-.854a2.703 2.703 0 0 0-.636-.192c-.212-.043-.933-.021-1.018.065-.022.041-.15 4.25-.15 4.805 0 .107 1.614.086 1.996-.236.552-.469.318-3.267.254-3.588z"/></g><g><path fill="#fff" d="M199.779 26.47c.063 0 .487.021.89.021.235.022.51.022.786.022l.403 7.219 2.25.128.636-7.668h1.528l-.043 14.844-1.761.043-.446-5.467-1.994-.13-.127 5.682-.913.109c-.446.063-.913.085-.85.02.086-.086-.487-14.823-.36-14.823z"/></g><g><path fill="#fff" d="M212.597 41.293l.318-8.865-2.716 8.908-2.165.085-.297-15.144 2.08-.256.211 10.145 2.93-9.76 1.994-.085-.19 14.929z"/></g><g><path fill="#fff" d="M218.264 26.02l.085 6.408 3.84-6.278 1.21 1.473-3.82 6.152 3.502 6.237-1.676 1.324-2.929-6.45-.042 6.493h-1.868l-.17-15.017z"/></g><g><path fill="#fff" d="M231.74 28.413c0 .94-.042 3.759-.042 6.26l-.043 4.805c0 .897-.637 1.815-1.55 1.815-.572.02-1.463 0-2.25-.02-.465-.023-.932-.023-1.42-.023-1.359-.234-1.74-1.195-1.677-2.498l.022-10.38c.02-.386.085-.728.212-1.025.233-.513.657-1.048 1.57-1.07.912-.02 1.74-.02 2.355 0l.998.045c.34.064.637.17.912.32.446.277.912.81.912 1.771zm-2.016 4.636c0-2.606-.085-4.272-.085-4.272-.021-.235-.043-.706-.106-.897-.17-.32-.53-.363-1.23-.363-1.4 0-1.486.192-1.486 1.217 0 .321-.043 9.207-.043 9.675 0 1.025.106 1.218 1.507 1.218.678 0 1.168-.278 1.337-.597.063-.193.106-.406.148-.641 0 0-.042-3.205-.042-5.34z"/></g><g><path fill="#fff" d="M240.251 35.783c-.064.747-.127 1.857-.212 2.797-.065.556-.107 1.11-.15 1.688-.02.15-.105.3-.211.428-.19.234-.573.469-1.274.491-.741.063-1.91.086-2.949.15l-1.889.085c-.402-5.532-.402-10.296-.212-14.974 1.337-.191 2.737-.277 4.01-.212.426-.022.808.041 1.147.191.572.236 1.167.727 1.273 1.752.085 1.047.085 2.007.064 2.712l-.064 1.154a2.354 2.354 0 0 1-.361.64c-.275.321-.763.663-1.506.728-.764.063-1.295.063-1.655.063-.212 0-.382 0-.53-.022l2.694.598c.36.064.657.17.934.32.488.257.954.664.891 1.41zm-3.395-.491c-.254-.215-1.146-.236-1.168-.193-.17.812.022 4.977.022 4.977s1.104.021 1.315-.32c.213-.364.276-.834.319-1.261.042-.384.085-.77.106-1.153.02-.705-.042-1.56-.594-2.05zm-1.168-3.397s.552-.02.743-.106c.383-.193.615-.812.658-1.175.064-.492.021-2.457 0-2.65-.043-.618-.785-.874-1.316-.768l-.042.02z"/></g><g><path fill="#fff" d="M236.727 52.142h-.598c-.365-.1.801-.006 1.317 0 .708.009 1.546-.032 1.917.04.344.134.627.28.6.458-.07.447-1.2.415-2.637.576-1.549.175-3.541.494-4.551.576-8.573.165-17.823.154-26.716.191-1.257.007-2.309-.01-3.473-.114-4.792.197-10.434.013-15.574 0-1.431-.004-2.884.038-4.313.039-1.373 0-2.74-.004-4.073 0-7.743.018-16.932-.025-25.637-.04-1.596-.002-3.198.06-4.79.04-7.492-.099-15.202-.06-21.206-.078-7.982-.023-16.288.091-24.677.154-1.887-.122-4.753-.091-6.83-.115-5.255-.062-11.093-.071-16.053-.499-1.1-.094-2.418-.294-3.712-.422-1.3-.128-2.813-.213-3.715-.422-.64-.149-.808-.536-1.796-.576.281-.47-.94-1.185 1.796-1.342 1.804-.105 3.785.161 5.511.269 11.14.687 25.637.54 37.018.536 4.08 0 8.527-.157 12.219.076 3.869-.117 7.856-.06 11.62-.037 12.105.07 24.303-.045 36.418 0 6.736.024 13.361.074 20.606.153 12.676.137 24.913.197 37.377.46.451.071 2.638.185 3.952.077z"/></g><g><path fill="#fff" d="M29.981 30.989c.761-.629 1.794-1.119 2.934-1.393v-.228c-1.124.265-2.151.737-2.934 1.344z"/></g><g><path fill="#fff" d="M34.42 25.615v7.77c-2.247 0-4.26.78-5.423 1.965-1.163-1.185-3.176-1.966-5.424-1.966v-7.769c2.248 0 4.26.781 5.424 1.967 1.164-1.186 3.176-1.967 5.423-1.967zm-5.546 8.805c-1.992-1.944-4.468-2.068-4.685-2.074v.44c1.798.11 3.488.7 4.685 1.634zm.005-.305c-1.849-2.059-4.227-2.4-4.69-2.449v.456c.206.006 2.655.118 4.69 1.993zm.006-5.767l-.328-.335c-.961-.978-2.59-1.634-4.368-1.759v5.187c.427.042 2.792.358 4.696 2.349zm4.919 3.998c-.217.006-2.692.13-4.684 2.074 1.196-.933 2.886-1.525 4.684-1.634zm0-.68c-.463.048-2.84.39-4.69 2.449 2.035-1.875 4.485-1.987 4.69-1.993zm0-5.412c-1.777.125-3.406.78-4.367 1.76l-.328.334v5.442c1.904-1.991 4.269-2.307 4.695-2.349z"/></g><g><path fill="#fff" d="M29.981 30.036c.761-.629 1.794-1.118 2.934-1.392v-.228c-1.124.264-2.151.737-2.934 1.344z"/></g><g><path fill="#fff" d="M29.981 29.09c.761-.629 1.794-1.118 2.934-1.392v-.228c-1.124.264-2.151.736-2.934 1.344z"/></g><g><path fill="#fff" d="M25.079 27.698c1.14.274 2.172.763 2.933 1.392v-.276c-.783-.608-1.81-1.08-2.933-1.344z"/></g><g><path fill="#fff" d="M29.981 31.924c.761-.63 1.794-1.118 2.934-1.392v-.229c-1.124.265-2.151.737-2.934 1.345z"/></g><g><path fill="#fff" d="M25.079 28.643c1.14.274 2.172.763 2.933 1.393v-.277c-.783-.607-1.809-1.079-2.933-1.344z"/></g><g><path fill="#fff" d="M25.079 30.531c1.14.274 2.172.763 2.933 1.393v-.277c-.783-.608-1.81-1.079-2.933-1.344z"/></g><g><path fill="#fff" d="M25.079 29.596c1.14.274 2.172.764 2.933 1.393v-.277c-.783-.607-1.809-1.078-2.933-1.344z"/></g><g><path fill="#fff" d="M19.715 56c2.607 0 5.094-.512 7.371-1.43-.449-.308-.885-.632-1.306-.974-4.455-3.615-7.3-9.133-7.3-15.317 0-.618.028-1.229.084-1.832v-.163c0-7.533 4.223-14.079 10.433-17.398 6.21 3.319 10.433 9.865 10.433 17.398 0 .164 0 .11-.001.163 5.087-3.178 8.62-8.611 9.199-14.9.055-.603.083-1.214.083-1.832v-.162C48.624 8.74 39.831 0 28.997 0 18.77 0 10.368 7.786 9.382 17.753a19.666 19.666 0 0 1 8.82-2.079c3.977 0 7.679 1.177 10.775 3.202a19.62 19.62 0 0 0-9.263-2.307 19.622 19.622 0 0 0-10.432 2.983v.001C3.708 23.036 0 29.227 0 36.284 0 47.173 8.827 56 19.715 56z"/></g><g><path fill="#fff" d="M18.564 36.447c.055 6.838 3.59 12.846 8.922 16.34.489.32.992.62 1.51.896l-.066.033.067-.033A19.632 19.632 0 0 0 38.278 56c10.889 0 19.715-8.827 19.715-19.716 0-6.367-3.024-12.022-7.708-15.626-.059.625-.146 1.24-.262 1.846-1.17 6.126-5.172 11.246-10.594 13.943a19.612 19.612 0 0 1-10.432 2.985 19.624 19.624 0 0 1-10.433-2.985z"/></g></g></g></g></svg>